<?xml version="1.0" standalone="no"?>
<!DOCTYPE svg PUBLIC "-//W3C//DTD SVG 1.1//EN" "http://www.w3.org/Graphics/SVG/1.1/DTD/svg11.dtd" >
<svg xmlns="http://www.w3.org/2000/svg">
<metadata>
This is a custom SVG webfont generated by Font Squirrel.
Copyright   : Copyright by Christine Mauerkirchner and Rainer Grunert
</metadata>
<defs>
<font id="MarlonLightDBNormal" horiz-adv-x="1102" >
<font-face units-per-em="2048" ascent="1638" descent="-410" />
<missing-glyph horiz-adv-x="676" />
<glyph unicode=" "  horiz-adv-x="676" />
<glyph unicode="&#x09;" horiz-adv-x="676" />
<glyph unicode="&#xa0;" horiz-adv-x="676" />
<glyph unicode="!" horiz-adv-x="526" d="M141 1376v70h344v-72q-69 -4 -85 -92q-3 -72 -7 -143l-37 -791h-86l-37 875q-3 79 -11 100q-18 44 -81 53zM223 0v182h185v-182h-185z" />
<glyph unicode="&#x22;" horiz-adv-x="614" d="M90 1294v183h180v-185q0 4 -94 -260h-82l72 262h-76zM377 1294v183h182v-187l-94 -258h-84l72 262h-76z" />
<glyph unicode="#" horiz-adv-x="1077" d="M39 422v137h219l53 395h-219v140h240l59 422h141l-59 -422h254l59 422h142l-60 -422h170v-138h-190l-55 -397h188v-137h-207l-59 -422h-142l60 422h-254l-60 -422h-141l60 422h-199zM399 559h252l56 397h-252z" />
<glyph unicode="$" horiz-adv-x="924" d="M47 356h72q29 -257 278 -266v641q-183 141 -208 168q-95 102 -95 244q0 121 90 221q93 104 213 102v160h103v-160h12q23 0 69.5 -10t71.5 -10q32 0 47 31h66l-4 -322h-70q0 180 -192 197v-514q169 -103 247 -188q115 -125 115 -277q0 -154 -104.5 -268.5t-257.5 -124.5 v-244h-103v241q-67 21 -207 48q-19 -5 -38 -25h-74zM244 1153q0 -133 153 -244v437q-64 -11 -108.5 -69t-44.5 -124zM500 96q106 41 152 91q57 62 57 165q0 99 -63 178q-45 56 -146 125v-559z" />
<glyph unicode="%" horiz-adv-x="1628" d="M43 973q-3 485 299 485v2q289 0 289 -469q0 -459 -297 -459q-158 0 -233 151q-57 114 -58 290zM145 1004q0 -388 191 -388q124 0 168 139q24 80 24 242q0 164 -23 244q-42 143 -165 143q-195 0 -195 -380zM367 2l780 1446h92l-776 -1446h-96zM977 438q0 482 301 482 q162 0 234 -161q53 -117 53 -302q0 -465 -297 -465q-162 0 -236 152q-55 114 -55 294zM1079 453q0 -166 26 -245q45 -136 175 -136q182 0 182 395q0 375 -182 375q-131 0 -176 -140q-25 -79 -25 -249z" />
<glyph unicode="&#x26;" horiz-adv-x="1585" d="M74 565q0 180 84 321q88 145 248 218q-15 57 -15 100q0 113 96 190q90 72 205 72q32 0 94.5 -10t94.5 -10q24 0 34 27h64v-302h-68q-15 183 -198 183q-76 0 -126 -44.5t-50 -119.5q0 -118 221 -386q160 -180 319 -360q72 192 72 453q0 82 -2 123h256v-68h-6 q-95 0 -126 -121l-24 -198q-21 -149 -80 -281q156 -159 181 -179q119 -99 223 -99v-74h-275q-98 98 -202 219q-161 -246 -461 -246q-247 0 -406 174q-153 169 -153 418zM225 575q0 -191 118 -335q124 -152 310 -152q109 0 212.5 61t152.5 158q-158 171 -315 341 q-214 242 -263 356v-3q-215 -148 -215 -426z" />
<glyph unicode="'" horiz-adv-x="354" d="M31 1034v191l96 252h78l-70 -265h74v-178h-178z" />
<glyph unicode="(" horiz-adv-x="485" d="M123 752q0 215 91 448q86 218 228 399h66q-119 -156 -183 -412q-55 -221 -55 -452q0 -491 240 -887l-66 2q-164 241 -235 425q-86 223 -86 477z" />
<glyph unicode=")" horiz-adv-x="485" d="M-18 1599h65q322 -441 322 -903q0 -410 -316 -848h-65q233 392 233 850q0 538 -239 901z" />
<glyph unicode="*" horiz-adv-x="705" d="M55 1303l37 131l45 -15q0 -8 4 -16q27 -21 90.5 -39t90.5 -37l-4 104q-5 82 -21 89l-12 6v47h139v-49q-14 -5 -16 -11q-21 -17 -21 -167v-19q21 17 84 38q70 23 92 36q2 4 2 24l49 17l45 -131l-43 -17q-11 15 -32 15q-24 0 -95 -26q-67 -25 -83 -23q6 -5 70 -79 q52 -60 79 -60q5 0 8 1l31 -37l-105 -86l-30 37q6 10 6 21q0 12 -46 75q-31 40 -61 80l-2 13q-29 -44 -58 -87q-44 -67 -44 -83q0 -2 1 -6.5t1 -6.5l8 -10l-31 -41l-110 78l24 39q9 -2 25 -2q23 14 68 82q42 63 69 74q-129 43 -182 43q-14 0 -27 -17z" />
<glyph unicode="+" horiz-adv-x="1364" d="M88 553v88h549v551h88v-551h551v-88h-551v-553h-88v553h-549z" />
<glyph unicode="," horiz-adv-x="352" d="M92 0v182h180v-184l-98 -258h-78l72 260h-76z" />
<glyph unicode="-" horiz-adv-x="748" d="M123 668v131h516v-131h-516z" />
<glyph unicode="." horiz-adv-x="352" d="M100 0v180h179v-180h-179z" />
<glyph unicode="/" horiz-adv-x="485" d="M10 -25l377 1495h102l-376 -1495h-103z" />
<glyph unicode="0" d="M84 719q0 301 84 488q116 257 381 257q264 0 382 -238q89 -179 89 -474q0 -777 -471 -777q-465 0 -465 744zM233 719q0 -255 45 -394q73 -231 271 -231l2 -2q207 0 277 234q38 130 38 405q0 274 -42 400q-73 221 -289 221q-302 0 -302 -633z" />
<glyph unicode="1" d="M281 1155v105q208 34 245 186h97l2 -1188q0 -91 14 -125q24 -57 102 -59v-74h-383v74h9q108 0 108 147v1014q-66 -76 -194 -80z" />
<glyph unicode="2" d="M113 0q4 250 67 367q56 103 224 246q212 182 261 237q126 142 126 285h2q0 108 -84 173q-76 60 -189 60q-106 0 -176 -51q-81 -58 -76 -160h-78v313h76l8 -18l19 -8h12q47 0 140.5 15.5t140.5 15.5q153 0 256 -91q108 -94 108 -245q0 -193 -175 -360l-328 -278 q-179 -174 -185 -380h385q128 0 170 27q53 35 68 155h78l-29 -303h-821z" />
<glyph unicode="3" d="M106 37v272h72q15 -131 87 -180q63 -43 200 -43q157 0 247 107q84 99 85 260q0 153 -88 241t-242 88q-37 0 -74 -6v80q72 86 181 235q133 184 176 238h-351q-79 0 -123 -41q-46 -44 -40 -123h-76v285h749v-100q-57 -70 -352 -467q186 -6 292 -122q103 -114 103 -300 q0 -232 -144 -358q-137 -119 -374 -119q-143 0 -328 53z" />
<glyph unicode="4" d="M82 430v113l547 903h248v-74q-58 -3 -58 -76v-751h25q87 0 104 71h66l-31 -186h-162v-256q0 -61 20 -80q17 -16 79 -22v-72h-385v72q86 6 111.5 29t25.5 108v221h-590zM221 547h451v762z" />
<glyph unicode="5" d="M147 301h76q41 -222 283 -221q160 1 249 129q79 112 79 278q0 165 -74 258q-82 103 -242 103q-191 0 -274 -164l-70 14l70 748h536q40 0 58 20l4 17h67l25 -279h-74q-32 86 -88 111q-38 16 -143 16h-264l-41 -428q118 55 200 55q233 0 383 -170q18 -35 51 -110 q31 -80 31 -182q0 -240 -140 -380.5t-380 -140.5q-114 0 -307 52z" />
<glyph unicode="6" d="M127 614q0 328 80 545q116 318 385 318q35 0 102.5 -13.5t102.5 -13.5q8 0 32 8l13 19h71v-289h-77q-11 188 -248 188q-276 0 -307 -575q120 152 299 153q203 1 317 -141q104 -131 104 -340q1 -207 -102 -345q-115 -153 -315 -153q-457 0 -457 639zM287 481 q0 -403 301 -403q139 0 205 127q51 99 51 252q0 388 -266 389q-291 1 -291 -365z" />
<glyph unicode="7" d="M186 1174l7 311h71l6 -21q29 -24 312 -24q68 0 205.5 3t205.5 3v-35q0 -213 -139 -461q-130 -202 -260 -403q-139 -224 -139 -377q0 -97 92 -100v-70h-252q-12 39 -12 100q0 194 139 420q134 194 268 387q152 233 172 424h-444q-70 0 -105 -35q-24 -24 -55 -98v-6 q0 -12 -2 -18h-70z" />
<glyph unicode="8" d="M125 406q0 160 49 256q57 113 195 169q-187 73 -187 304q0 154 117 251q110 93 266 93q164 0 271 -92q112 -97 112 -257q0 -219 -194 -301q250 -98 250 -397q0 -203 -115 -326q-118 -126 -320 -126q-201 0 -321 110q-123 115 -123 316zM279 410q0 -146 65 -232 q74 -96 215 -96q291 0 291 348q0 153 -69 243q-77 99 -226 99q-276 0 -276 -362zM334 1104q0 -96 63.5 -161.5t159.5 -65.5q112 0 174 67.5t62 179.5q0 106 -58 177q-62 75 -166 75q-235 2 -235 -272z" />
<glyph unicode="9" d="M111 975q0 227 107 358q116 142 339 142q420 0 420 -619q0 -377 -73 -572q-115 -309 -427 -309q-34 0 -103.5 13.5t-105.5 13.5t-51 -27h-67l2 289h77q14 -190 242 -190q352 0 352 581q-88 -155 -293 -155q-206 0 -317 137q-102 127 -102 338zM266 1008q0 -398 269 -398 q282 0 282 373q0 165 -60 265q-74 123 -229 124q-141 1 -208 -117q-54 -94 -54 -247z" />
<glyph unicode=":" horiz-adv-x="440" d="M188 0v182h181v-182h-181zM188 618v179h183v-179h-183z" />
<glyph unicode=";" horiz-adv-x="442" d="M188 0v182h181v-184l-103 -260h-76l72 262h-74zM188 618v181h181v-181h-181z" />
<glyph unicode="&#x3c;" horiz-adv-x="1180" d="M63 455v127l1041 471v-140l-871 -395l871 -395v-139z" />
<glyph unicode="=" horiz-adv-x="1364" d="M0 373v90h1364v-90h-1364zM0 731v92h1364v-92h-1364z" />
<glyph unicode="&#x3e;" horiz-adv-x="1180" d="M76 -16v139l870 395l-870 395v140l1040 -471v-127z" />
<glyph unicode="?" horiz-adv-x="705" d="M51 1196l43 277h72q15 -23 49 -23q23 0 67 7t66 7q128 0 213.5 -78.5t85.5 -205.5q0 -124 -76 -250q-70 -99 -141 -197q-76 -107 -76 -184q0 -49 35 -49q12 0 17 2l34 -58l-188 -120q-35 111 -35 176q-1 133 72 258q67 97 135 193q73 107 74 196q0 86 -57.5 142.5 t-145.5 56.5q-146 0 -172 -150h-72zM254 0v184h180v-184h-180z" />
<glyph unicode="@" horiz-adv-x="2079" d="M301 739q0 318 227 544t545 226q284 0 489 -175q216 -184 216 -464q0 -206 -140 -392q-150 -199 -350 -199q-56 0 -92.5 36t-38.5 93l-4 -2q-115 -127 -246 -127t-218 99q-83 95 -83 228q0 215 127 383q138 182 346 182q163 0 236 -159l41 127h141q-51 -167 -149 -504 q-37 -135 -37 -164q0 -59 43 -59q123 0 213 165q78 142 78 277q0 238 -169 386q-162 142 -403 142q-270 0 -449 -194q-173 -188 -173 -461q0 -269 183.5 -454t455.5 -185q142 0 274.5 62t220.5 172h137q-99 -168 -271 -264.5t-368 -96.5q-327 0 -554.5 226t-227.5 552z M774 625q0 -83 44 -139q47 -60 128 -60q125 0 220 146q85 132 85 264q0 72 -47 128q-50 60 -121 60q-130 0 -224 -138q-85 -125 -85 -261z" />
<glyph unicode="A" horiz-adv-x="1319" d="M-4 0v72h2q90 10 139 117l62 186l104 303q58 162 115 323q86 249 86 304q0 61 -76 61v80h455l2 -78q-86 0 -86 -64q0 -47 77 -266q51 -143 103 -286l82 -242q33 -99 106 -295q33 -78 53 -100q33 -38 101 -43v-72h-393v74q94 0 94 63q0 67 -113 363h-544 q-109 -303 -109 -357q0 -70 77 -70q9 0 19 1v-74h-356zM401 606h476l-242 703z" />
<glyph unicode="B" horiz-adv-x="1188" d="M70 0v70q106 7 106 145v1004q0 151 -104 151v76h508q452 0 452 -340q0 -230 -213 -289q299 -98 299 -387q0 -208 -132 -322q-125 -108 -337 -108h-579zM326 109h309q152 0 240 83.5t88 235.5t-95.5 240t-249.5 88h-292v-647zM328 864h278q281 0 281 250q0 217 -309 217 h-250v-467z" />
<glyph unicode="C" d="M84 702q0 323 127 522q152 238 457 238q52 0 130 -12q119 -19 130 -20q33 14 30 34h70l6 -293h-73q-6 96 -106 144q-78 38 -185 39h-3q-425 0 -425 -629q0 -637 430 -637q123 0 211 56q104 65 104 182h74l-8 -236q-252 -113 -410 -113q-282 0 -432 231q-127 196 -127 494 z" />
<glyph unicode="D" horiz-adv-x="1276" d="M66 0v74l8 -2h7q62 0 82 48q13 30 13 111v590q0 67 1 200t1 200q0 150 -93 150q-6 0 -13 -1v76h286q406 0 549 -98q287 -198 287 -625q0 -273 -114 -454q-128 -203 -382 -255l-196 -18q-14 4 -203 4h-233zM326 109h141q222 0 342 67q112 63 176 236q53 144 53 297 q0 266 -106 428q-125 192 -379 192h-191q-6 0 -18 -1t-18 -1v-1218z" />
<glyph unicode="E" horiz-adv-x="1057" d="M72 1366v74h870l23 -262l-74 2q-8 89 -75 123q-49 24 -150 24q-57 0 -169.5 -1t-168.5 -1v-479h356q39 0 64 5q71 14 71 89q0 11 -2 23h74v-340h-74v10q0 66 -35 86q-24 14 -94 14q-34 0 -101 2t-100 2h-159v-622h362q117 0 168 30q64 39 76 148h72l-23 -293h-909v74h8 q94 0 94 141l-2 1016q0 68 -17 96q-22 36 -85 39z" />
<glyph unicode="F" horiz-adv-x="924" d="M68 1362v84h831l23 -266h-74q-6 93 -79 128q-50 23 -157 23h-286v-500h329q72 0 96 23.5t25 95.5h74v-346h-76v14q0 66 -37 88q-27 17 -98 17h-313v-535q0 -69 42 -94q29 -17 105 -20v-74h-401v74q64 0 86 42q16 30 16 101v1028q0 117 -98 117h-8z" />
<glyph unicode="G" horiz-adv-x="1231" d="M80 715q0 312 130 513q153 236 447 236q43 0 128.5 -15t129.5 -15q37 0 39 32h68l8 -292l-76 -3q-28 184 -290 185h-3q-421 0 -421 -639q0 -631 460 -631q93 0 222 37v600h-27q-135 0 -135 -85v-9h-72v207h383v-709q0 -44 41 -51v-70l-29 2q-23 2 -48 2 q-65 0 -192.5 -16.5t-191.5 -16.5q-290 0 -442 234q-129 198 -129 504z" />
<glyph unicode="H" horiz-adv-x="1364" d="M70 0v74h12q92 0 92 119v1079q0 94 -89 94h-13v80h360v-80h-20q-88 0 -88 -152v-370h712v383q0 75 -18 104q-22 37 -84 37h-10v78h364v-80h-8q-94 0 -94 -123v-1067q0 -101 102 -104v-72h-366v74l6 2h5q62 0 85 45q16 31 16 104v516h-708v-526q0 -74 16 -102 q23 -39 92 -39v-74h-364z" />
<glyph unicode="I" horiz-adv-x="485" d="M70 74q108 0 108 133q0 15 -1 45t-1 45v936q0 74 -14 100q-20 35 -80 35h-10v78h364v-80q-66 0 -89 -33q-19 -27 -19 -96q0 -172 2 -515.5t2 -514.5q0 -133 99 -133h7v-74h-366z" />
<glyph unicode="J" horiz-adv-x="485" d="M-160 -90h74q28 -137 123 -137q153 0 153 221q0 83 -1 249t-1 251v546q0 21 3 68q2 44 2 70q-4 195 -104 195q-5 0 -11 -1v74h364v-76q-70 -7 -90 -42q-14 -24 -14 -101v-461q0 -127 3 -381t3 -381q0 -362 -350 -362q-71 0 -131 14z" />
<glyph unicode="K" horiz-adv-x="1188" d="M70 0v72q102 17 102 100v1098q0 84 -102 98v78h364v-82q-67 -3 -90 -39q-18 -28 -18 -98v-375q133 118 266 235q215 196 215 228q0 47 -72 51v80h398v-84l-11 2h-5q-69 0 -170 -82q-75 -70 -150 -139l-295 -271q22 2 67 2q181 0 280 -167q53 -90 120 -339 q58 -214 116 -268q24 -21 95 -28v-72l-271 -2q-67 366 -147 565q-87 215 -293 215q-79 0 -143 -30v-529q0 -56 8 -80q12 -35 53 -59l47 -6v-74h-364z" />
<glyph unicode="L" horiz-adv-x="969" d="M66 0v74l12 -2h5q93 0 93 184q0 17 -2 52t-2 52q0 47 1 142t1 143v592q0 66 -18 93q-22 33 -84 36v80h360v-80q-8 0 -14 2q-92 0 -92 -154q0 -33 -1 -100.5t-1 -101.5v-893h307q115 0 160 28q56 35 69 142h68l-19 -289h-843z" />
<glyph unicode="M" horiz-adv-x="1540" d="M33 72q14 1 43 4q58 9 74 155q4 100 8 199l20 373q1 23 17 226q10 137 10 226q0 102 -90 113v78h194q156 -294 447 -891l438 891h205v-78h-8q-86 0 -86 -117v-24l36 -531q8 -164 31 -493q6 -68 26 -96q25 -35 84 -35h7v-72h-363l2 72q97 8 97 98v20.5v20.5 q-23 315 -58 948q-18 -38 -55 -112l-348 -699h-53q-141 269 -410 815v-39q0 -157 -21.5 -471.5t-21.5 -472.5q0 -106 97 -106h5v-74h-325v72h-2z" />
<glyph unicode="N" horiz-adv-x="1319" d="M70 0v72q64 0 86 43q16 31 16 102l-2 987q0 67 -7 92q-13 48 -59 66q-16 6 -32 6v78h247q130 -217 392 -649q117 -190 344 -574q0 11 -1 34t-1 34v952q0 87 -90 125h-17v78h314v-76q-68 -4 -89 -50q-14 -30 -14 -108v-1212h-131l-747 1221v-996q0 -80 17 -109 q23 -39 97 -44v-72h-323z" />
<glyph unicode="O" horiz-adv-x="1276" d="M84 700q0 318 119 519q146 247 442 247q289 0 434 -237q119 -197 119 -504q0 -304 -120 -505q-146 -245 -429 -245q-300 0 -444 223q-121 186 -121 502zM240 700q0 -248 75 -406q102 -212 322 -212q401 0 401 649q0 627 -405 627q-393 0 -393 -658z" />
<glyph unicode="P" d="M70 0v74h6q98 0 98 125v1013q0 81 -13 108q-21 44 -91 48v72h571q179 0 290 -102q116 -106 116 -283q0 -391 -451 -391h-270v-445q0 -145 102 -145v-74h-358zM324 772h290q129 0 202 69.5t73 196.5q0 171 -93 236q-76 55 -253 55h-219v-557z" />
<glyph unicode="Q" horiz-adv-x="1276" d="M84 700q0 317 120 519q147 247 441 247q289 0 433 -246q116 -200 116 -509q0 -296 -114 -486q-136 -228 -410 -248q35 -7 135 -99q92 -85 168 -85q79 0 98 92l74 -6l-37 -211q-37 -6 -74 -6q-132 0 -246 79q-28 19 -198 171q-42 37 -120 74q-94 45 -124 65 q-262 176 -262 649zM238 725q0 -254 69 -418q98 -229 318 -229q413 0 413 645q0 631 -391 631q-409 0 -409 -629z" />
<glyph unicode="R" horiz-adv-x="1231" d="M66 1366v74h518q448 0 448 -344q0 -136 -65 -227q-73 -103 -203 -103q130 -40 195 -222l88 -312q55 -158 165 -158v-74l-268 -2q-31 162 -82 346q-58 210 -105 278q-83 117 -259 117h-172v-551q0 -108 104 -116v-72h-358v72q100 2 100 116v1051q0 68 -20 94.5t-86 32.5z M326 840h268q125 0 202 53q91 61 91 180q0 163 -114 221q-78 39 -259 39h-188v-493z" />
<glyph unicode="S" horiz-adv-x="1012" d="M49 360h74q0 -131 114 -207q99 -67 236 -67t228 81q94 85 94 220q0 172 -184 260l-340 140q-183 101 -183 303q0 171 122 274q115 96 290 96q41 0 119.5 -17.5t117.5 -17.5q38 0 60 35h69l-2 -330l-67 -2q-39 222 -291 222q-118 0 -193 -63q-82 -68 -82 -183 q0 -143 185 -226l342 -146q184 -113 184 -331q0 -191 -132 -311q-127 -115 -321 -115q-48 0 -144 20q-91 19 -141 19h-5h-31q-12 -8 -25 -16q-9 -9 -12 -25h-68z" />
<glyph unicode="T" d="M-2 1184l31 262h1038l37 -258h-72q-38 141 -229 143l-176 2l2 -841q0 -28 -3 -81t-3 -79q0 -250 84 -256q5 -1 15 -2t15 -2v-72h-364l2 74q100 0 100 128q0 14 -1 39.5t-1 37.5q0 31 1 94.5t1 95.5v862h-184q-193 0 -219 -147h-74z" />
<glyph unicode="U" horiz-adv-x="1276" d="M37 1368v72h364v-74h-8q-98 0 -98 -141v-781q0 -173 99 -265q96 -89 272 -89q356 0 356 410v704q0 78 -15 113q-22 49 -81 49h-11v74h326v-74q-2 0 -6 1t-6 1q-94 0 -99 -168q-2 -74 -2 -242q0 -78 1 -236t1 -237q0 -235 -129 -370q-132 -138 -366 -138q-224 0 -356 122 q-136 126 -136 347v811q0 58 -23.5 82t-82.5 29z" />
<glyph unicode="V" horiz-adv-x="1276" d="M-2 1366v80h387v-80q-8 0 -12 2q-84 0 -84 -82q0 -24 63 -221l203 -629l58 -158q34 -96 40 -163q95 279 279 839q45 138 92 330q1 82 -94 82v74h352v-72q-89 -9 -131 -117q-39 -97 -129 -362q-103 -303 -223 -668q-27 -91 -80 -235h-168q-22 95 -78 262q-57 156 -168 469 q-41 138 -129 411q-21 62 -72 175q-35 60 -106 63z" />
<glyph unicode="W" horiz-adv-x="1804" d="M2 1368v72h404v-74h-13q-86 0 -86 -88q0 -40 24.5 -150.5t74.5 -330.5l135 -647q35 126 76 318q33 160 67 320q33 127 66 253q38 154 38 253q0 73 -79 73q-8 0 -17 -1v74h436v-72q-100 -4 -100 -80q0 -72 29 -192q25 -95 49 -191l170 -755l229 1058q13 57 13 86 q0 67 -101 72v74h369v-74q-86 -1 -120 -43q-23 -29 -44 -123l-68 -303q-72 -298 -204 -897h-170l-152 632q-86 366 -135 636q-26 -123 -287 -1268h-166q-72 310 -241 1057q-42 185 -48 198q-45 112 -149 113z" />
<glyph unicode="X" horiz-adv-x="1276" d="M2 1368v78h406v-78q-70 0 -70 -41q0 -47 128 -233q85 -119 171 -238q84 117 168 235q123 179 123 234q0 23 -24.5 36t-47.5 9v76h369v-78l-6 -2h-3q-78 0 -130 -47q-25 -23 -87 -115l-297 -442l396 -574q43 -63 75 -86q40 -28 95 -28h14v-74h-405v74h9q56 0 56 49 q0 45 -141 250q-94 130 -187 260q-89 -127 -178 -253q-135 -199 -135 -247q0 -28 20.5 -47t49.5 -14v-72h-367v76q98 0 184 106q62 95 123 189q75 122 242 354q-86 122 -256 367l-116 176q-73 88 -179 100z" />
<glyph unicode="Y" horiz-adv-x="1231" d="M-2 1368v78h381v-78q-2 0 -6 1t-6 1q-52 0 -52 -49q0 -39 141 -281q88 -150 177 -301q4 29 67 133q72 114 143 228q111 183 111 223q0 49 -63 49v74h340v-76h-8q-78 0 -157 -105q-13 -17 -105 -169q-90 -148 -273 -439v-438q0 -79 13 -106q20 -41 86 -41h6v-72h-359v70 q103 2 103 135v454q-201 317 -308 490q-83 136 -90 143q-61 76 -139 76h-2z" />
<glyph unicode="Z" horiz-adv-x="969" d="M23 0v82l733 1247h-330q-113 0 -171 -24q-82 -35 -105 -129h-74l47 270h821v-84q-158 -251 -373 -623l-362 -628h438q110 0 162 33q61 40 74 145h69l-18 -289h-911z" />
<glyph unicode="[" horiz-adv-x="526" d="M186 -152v1754h379v-72h-231v-1610h233v-72h-381z" />
<glyph unicode="\" horiz-adv-x="569" d="M-35 1509h135l504 -1548h-137z" />
<glyph unicode="]" horiz-adv-x="528" d="M-20 1530v72h385v-1754h-381v74h231v1608h-235z" />
<glyph unicode="^" horiz-adv-x="0" d="M-279 1581l242 285h88l238 -287h-125l-156 227l-160 -225h-127z" />
<glyph unicode="_" horiz-adv-x="1139" d="M0 -154h1139v-102h-1139v102z" />
<glyph unicode="`" horiz-adv-x="0" d="M-344 1565h182q40 -34 127 -117q100 -94 111 -113h-103z" />
<glyph unicode="a" horiz-adv-x="1012" d="M37 332q0 217 183 313q102 53 376 96q71 12 91 24q33 20 46 79q4 18 4 49q0 184 -260 184q-277 0 -289 -162h-61l2 267h64q8 -25 53 -25q49 0 146.5 13t146.5 14h4q206 0 282 -105q63 -88 64 -305q0 -80 -3 -215q-5 -159 -5 -213v-14q0 -88 12 -154q22 -116 77 -116 q4 0 9 1v-63h-201q-26 105 -26 164q0 12 2 20q-106 -211 -353 -211q-157 0 -260.5 101t-103.5 258zM193 328q0 -99 68.5 -170.5t166.5 -71.5q307 0 307 500v98q-59 -30 -230 -60q-154 -28 -216 -73q-96 -69 -96 -223z" />
<glyph unicode="b" horiz-adv-x="1145" d="M55 1470v66h248v-504q23 59 124 107q93 45 163 45q233 0 362 -179q115 -159 115 -401q0 -236 -121 -419q-138 -210 -362 -210q-106 0 -175 42q-59 37 -126 128v-16q0 -32 -19 -129h-207v66q97 8 97 184v932q0 20 2 60.5t2 60.5q0 167 -97 167h-6zM291 418 q0 -348 282 -348q163 0 252 183q70 146 70 329q0 192 -64 318q-82 163 -256 163q-120 0 -200 -72q-84 -74 -84 -192v-381z" />
<glyph unicode="c" horiz-adv-x="1014" d="M76 573q0 255 142 428q152 187 403 187q32 0 93.5 -11.5t92.5 -11.5q26 0 43 27h59v-274h-63q-26 159 -219 159q-192 0 -300 -167q-91 -143 -91 -347q0 -185 110 -323q117 -148 297 -148h2q86 1 161 55q76 55 76 128q0 7 -1 14h65l-24 -228q-117 -86 -314 -86 q-244 0 -393 180q-139 169 -139 418z" />
<glyph unicode="d" horiz-adv-x="1145" d="M74 543q0 239 130 427q146 212 376 212q172 0 270 -115v242q0 163 -90 166v65l239 -2v-1135q2 -335 101 -335h4v-68h-203q-25 81 -25 164q0 12 1 24q-36 -99 -131 -157q-89 -54 -199 -54q-218 0 -352 179q-121 161 -121 387zM229 563q0 -191 76 -320q92 -157 270 -157 q170 0 235 150q44 101 44 296v211q0 334 -258 334q-180 0 -282 -175q-85 -146 -85 -339z" />
<glyph unicode="e" horiz-adv-x="1057" d="M76 596q0 229 112 399q129 195 347 195q223 0 347 -165q113 -149 113 -380v-39h-759v-33q0 -192 96 -327q108 -152 293 -152q116 0 200 48q98 54 121 159h64l-21 -211q-174 -113 -375 -113q-257 0 -403 185q-135 170 -135 434zM240 711h594v28q0 130 -77 230 q-83 108 -208 108q-140 0 -223 -118q-69 -97 -86 -248z" />
<glyph unicode="f" horiz-adv-x="571" d="M63 0v63q72 11 89 53q8 21 8 105q0 28 1 83t1 83v184q0 81 -1 243t-1 243h-94v106h92q2 199 41 279q60 123 235 123q27 0 79 -9.5t79 -9.5q41 0 49 29h59v-283h-63q-10 168 -166 168q-99 0 -136 -60q-28 -46 -28 -151v-86h258v-106l-254 2q0 -283 2 -565l2 -281 q1 -84 24 -115q25 -35 93 -35h14v-63h-383z" />
<glyph unicode="g" d="M53 -162q0 77 47 149q50 76 121 97q-51 23 -83 84q-29 56 -29 117q0 120 100 217q-96 106 -96 262q0 175 132 299t310 125q54 0 157 -22.5t156 -22.5q127 0 142 94h61l-2 -184q-34 -16 -72 -17h-12q-64 0 -121 19q62 -37 102 -138q35 -89 35 -172q0 -178 -138 -289 q-128 -102 -308 -102h-4q-158 1 -281 92q-41 -68 -41 -114q0 -170 291 -170q23 0 68 1t67 1q191 0 287 -49q133 -68 133 -240q0 -164 -187 -262q-154 -80 -335 -80q-174 0 -318 67q-181 85 -182 238zM199 -147q0 -121 129 -179q96 -44 235 -45h5q129 0 237 50 q139 65 139 182q0 162 -272 166q-34 0 -95 -5q-68 -5 -96 -6h-7q-95 0 -171 27q-104 -61 -104 -190zM270 768q0 -144 84 -231.5t228 -87.5q124 0 198 102q66 91 66 219q0 139 -75 228q-79 94 -214 94q-134 0 -213 -98q-74 -90 -74 -226z" />
<glyph unicode="h" horiz-adv-x="1188" d="M61 1468v64h242v-543q134 195 352 195q188 0 286 -108q93 -103 93 -294v-589q0 -58 11 -81q15 -31 63 -49h20v-63h-340v63q97 0 97 119v523q0 177 -39 256q-56 114 -215 114q-147 0 -238 -105q-88 -100 -88 -249v-526q0 -132 89 -132h3v-63h-334v61h7q86 0 86 123v1162 q0 117 -95 122z" />
<glyph unicode="i" horiz-adv-x="440" d="M63 1102v61h252v-966q0 -75 11 -96q18 -33 84 -40v-61h-344v61q8 0 12 -2q84 0 84 109l-2 801q0 135 -72 137q-7 0 -25 -4zM158 1421v160h161v-160h-161z" />
<glyph unicode="j" horiz-adv-x="440" d="M-135 -178h63q0 -8 -2 -12q0 -44 34.5 -79.5t78.5 -35.5q135 0 135 239v779q0 31 -1 123q-1 51 -1 90v35v7q0 132 -72 134q-7 0 -24 -4v63h250l2 -1261q0 -149 -73 -233q-76 -89 -222 -89q-76 0 -142 14zM166 1425v160h158v-160h-158z" />
<glyph unicode="k" d="M63 1481v65h242v-868l371 328q51 45 51 67q0 21 -18 27q-7 4 -35 4v61h362l-2 -65q-93 0 -301 -172l-282 -248q20 6 61 6q193 0 288 -161q3 -5 114 -299q60 -158 168 -158h3v-68h-258q-17 79 -84 297q-44 146 -95 210q-73 91 -204 91q-52 0 -137 -31v-358q0 -73 14 -103 q21 -43 82 -43h5v-63h-342v63h8q84 0 84 95l2 1167q0 157 -79 157q-9 0 -18 -1z" />
<glyph unicode="l" horiz-adv-x="440" d="M68 0v63h8q88 0 88 156q0 16 -2 46.5t-2 45.5q-2 254 -2 519t2 542q0 53 -19.5 76.5t-72.5 32.5v63l245 -2l2 -1352q0 -124 86 -124h7v-66h-340z" />
<glyph unicode="m" horiz-adv-x="1849" d="M63 0v63l5 3h4q88 0 88 137v749q0 69 -13 98q-20 44 -79 48v61h231v-155q133 182 340 182q112 0 198 -53q93 -57 124 -160q47 94 143 152.5t203 58.5q163 0 265.5 -97t102.5 -260v-663q0 -98 94 -101v-63h-342v63h9q88 0 88 154v561q0 299 -246 299q-129 0 -209 -107 q-72 -97 -72 -231v-559q0 -61 17 -86q21 -31 80 -31v-63h-344v66q63 0 83 44q13 27 13 99v557q0 309 -248 309q-135 0 -215 -105q-72 -95 -72 -235v-542q0 -127 90 -127h7v-66h-345z" />
<glyph unicode="n" horiz-adv-x="1188" d="M68 0v66h6q88 0 88 141l2 764q0 121 -94 131v63h243l-2 -155q112 186 359 186q184 0 278 -108q90 -102 90 -289v-598q0 -69 13 -94q19 -37 82 -41v-66h-342v66h10q86 0 86 118v586q0 316 -242 317h-3q-151 0 -242 -103q-89 -100 -89 -255q0 -31 4 -522q1 -69 7 -86 q12 -35 63 -55h21v-66h-338z" />
<glyph unicode="o" horiz-adv-x="1145" d="M78 565q0 252 116 422q133 197 373 197q250 0 384 -191q118 -168 118 -428q0 -246 -129 -411q-141 -179 -381 -179q-229 0 -363 186q-118 166 -118 404zM238 596q0 -514 337 -514q186 0 270 169q64 128 64 335q0 491 -344 491q-172 0 -259 -163q-68 -129 -68 -318z" />
<glyph unicode="p" horiz-adv-x="1145" d="M49 -326q98 15 98 148q0 21 -2 62t-2 61l-2 997q0 71 -12 102q-20 49 -80 56v61h240v-147q112 172 360 172q196 0 315 -187q103 -162 103 -370q0 -254 -106 -435q-129 -219 -365 -219q-176 0 -303 150l2 -293q0 -62 7 -87q12 -50 52 -64h6q9 0 30 -3t32 -2v-65h-373v63z M285 512v-14q0 -182 49 -277q69 -135 244 -135q333 0 333 541q0 180 -65 300q-82 152 -248 152q-140 0 -227 -111q-80 -103 -80 -247q0 -36 -3 -106t-3 -103z" />
<glyph unicode="q" horiz-adv-x="1145" d="M74 541q0 259 134 441q149 202 400 202q45 0 132 -20.5t132 -20.5q55 0 64 43h68v-1409q0 -103 91 -103h3v-63h-371v61q12 0 18 -2q109 0 109 109v266q0 15 -1 43t-1 41q-118 -154 -309 -154q-214 1 -348 182q-121 164 -121 384zM236 555q0 -192 69 -315 q87 -154 264 -154q122 0 202.5 83t80.5 206v657q-125 47 -236 47q-205 0 -302 -168q-78 -135 -78 -356z" />
<glyph unicode="r" horiz-adv-x="705" d="M68 0v61l6 -2q10 0 30 4q56 30 56 105l2 780q0 141 -92 148v63h225v-201q91 226 272 226q45 0 135 -13v-229h-61q2 42 -35 75.5t-80 33.5q-112 0 -170 -130q-45 -100 -45 -229v-502q0 -128 81 -128h1q12 0 25 1v-63h-350z" />
<glyph unicode="s" horiz-adv-x="881" d="M41 313h65q27 -127 106 -180q71 -49 208 -49q110 0 185 55q83 61 83 168q0 135 -158 202q-146 54 -292 107q-158 81 -158 252q0 139 105 232q100 88 241 88q39 0 114.5 -16.5t114.5 -16.5q33 0 39 27h66v-291h-68v12q0 79 -81 133q-72 49 -154 49h-4q-102 0 -163 -49 q-69 -55 -69 -159q0 -108 159 -167q290 -106 295 -109q159 -91 159 -279q0 -159 -125 -256q-114 -89 -277 -89q-45 0 -131.5 20.5t-130.5 20.5q-39 0 -45 -34h-68z" />
<glyph unicode="t" horiz-adv-x="616" d="M6 1057v73q84 18 154 107q62 79 62 155q0 10 -1 19h74v-246h311v-108h-311l2 -803q0 -71 38 -116q40 -48 109 -48q126 0 138 160h65l-10 -213q-120 -62 -219 -62q-178 0 -236 114q-39 76 -39 273v695h-137z" />
<glyph unicode="u" horiz-adv-x="1145" d="M25 1098v63h247v-774q0 -300 260 -301h2q147 0 237 118q81 108 81 261v498q-1 135 -92 135v63h237v-958q0 -65 18 -94q22 -37 83 -41v-68h-242v170q-91 -107 -153 -144q-81 -49 -205 -49q-177 0 -276 98.5t-99 276.5l2 611q0 136 -89 136q-5 0 -11 -1z" />
<glyph unicode="v" horiz-adv-x="1057" d="M-4 1102v63h364l2 -61h-12q-61 0 -61 -68q0 -28 14 -75l248 -820l258 822q12 39 12 79q0 62 -84 62v61h330v-61q-90 -15 -134 -107q-6 -11 -56 -174q-101 -323 -269 -848h-153q-28 120 -87 297q-92 275 -98 293q-35 121 -110 363q-30 92 -51 121q-37 53 -110 53h-3z" />
<glyph unicode="w" horiz-adv-x="1716" d="M-8 1098v63h344v-61q-68 -4 -68 -58q0 -67 53 -234q40 -121 80 -243q18 -57 107 -383q44 153 135 457q34 101 69 202q44 136 44 201q0 27 -22.5 43t-49.5 13v63h352v-61q-73 0 -73 -64q0 -38 59 -241q64 -205 180 -617q58 185 174 553q82 261 82 303q0 67 -62 67 q-6 0 -12 -1v63h320v-61h-6q-64 0 -103 -59q-23 -34 -49 -115l-301 -948h-123l-280 960q-101 -319 -289 -963h-125l-276 900q-41 132 -47 144q-37 78 -101 78q-6 0 -12 -1z" />
<glyph unicode="x" horiz-adv-x="1145" d="M-2 0v63l6 -2h3q73 0 168 108q6 7 130 175q61 80 180 240q-63 81 -188 245q-60 83 -121 165q-75 86 -168 108v61h391v-63h-8q-55 0 -55 -51q0 -22 107 -170q102 -142 132 -170l140 170q102 131 102 172q0 49 -65 49v63h348v-61q-82 -18 -117 -48q-12 -10 -80 -96 q-128 -161 -256 -340q115 -158 231 -317q163 -219 273 -238v-63h-401v63q41 2 51 10q7 7 20 46q-14 61 -270 377l-234 -314q-30 -41 -30 -71q0 -24 27 -37q23 -10 46 -6v-68h-362z" />
<glyph unicode="y" d="M6 1102v63h363v-63q-2 0 -6.5 1t-6.5 1q-57 0 -57 -68q0 -38 33 -135l235 -696l267 751q18 52 18 82q0 66 -84 66v61h332v-61q-82 -9 -115 -64q-5 -8 -49 -129l-383 -1052q-28 -87 -90 -258h-254v67h8q125 0 191 109q23 37 84 217q-49 142 -304 874q-53 153 -53 154 q-42 80 -125 80h-4z" />
<glyph unicode="z" horiz-adv-x="969" d="M33 0v51l669 1006h-348q-169 0 -227 -142h-59l45 244h792v-55l-672 -1004h433q181 0 202 170h64l-14 -270h-885z" />
<glyph unicode="{" horiz-adv-x="684" d="M86 479v123q113 0 148 138q19 75 16 229l-2 88q-4 180 23 269q46 153 190 153h137v-133h-90q-94 0 -94 -168v-232q0 -45 -2 -117q-3 -87 -50 -171q-53 -95 -129 -115v-4q184 -55 181 -408l-2 -178q0 -221 96 -221h90v-133h-137q-98 0 -157 86q-52 76 -52 178v350 q0 94 -36 170q-46 96 -130 96z" />
<glyph unicode="|" horiz-adv-x="532" d="M193 -39v1548h149v-1548h-149z" />
<glyph unicode="}" horiz-adv-x="684" d="M86 -268h90q98 0 94 221q-2 127 -2 176q0 156 27 242q42 134 156 168l-2 4q-76 20 -130 114q-47 85 -49 170v351q0 168 -94 168h-90v133h137q213 0 213 -381q0 -25 -1 -69t-1 -60q0 -163 17 -229q34 -138 147 -138v-123q-84 0 -130 -96q-36 -76 -36 -170v-350 q0 -102 -52 -178q-59 -86 -157 -86h-137v133z" />
<glyph unicode="~" horiz-adv-x="0" d="M-305 1638l35 134q62 55 133 55q50 0 142.5 -37.5t141.5 -38.5q72 -1 95 78h59l-37 -137q-70 -54 -147 -54q-45 0 -129.5 36t-130.5 36q-42 0 -65 -18q-14 -12 -40 -54h-57z" />
<glyph unicode="&#xa1;" horiz-adv-x="526" d="M63 0v66q69 5 89 89q8 36 8 142q0 21 12 338q7 153 21 461h86l18 -526q18 -428 39 -464q19 -32 74 -38v-68h-347zM143 1260v186h181v-186h-181z" />
<glyph unicode="&#xa2;" horiz-adv-x="1014" d="M76 573q0 206 98 368q108 176 297 228v215h102v-198q10 0 28 1t26 1q30 0 90.5 -11.5t91.5 -11.5q26 0 41 27h59v-274l-61 -3q-26 161 -219 164q-16 1 -56 -4v-979q29 -5 74 -4q85 2 160 55q84 61 74 142h65l-22 -230q-63 -45 -169 -68q-95 -21 -182 -16v-264h-102v281 q-188 48 -296 220q-99 158 -99 361zM236 567q0 -133 60 -249q64 -124 175 -185v911q-120 -59 -182 -204q-53 -124 -53 -273z" />
<glyph unicode="&#xa3;" horiz-adv-x="969" d="M14 0l2 70q88 12 119 62q12 21 41 130q39 150 127 447l-192 -4l16 104l209 2q119 489 268 596q61 44 108 50q6 1 119 1q4 0 10 1t9 1l16 13h52l34 -269h-75q-2 49 -25 90q-27 49 -70 49q-110 0 -199 -217q-15 -37 -98 -315h211l-18 -106h-223q-80 -281 -160 -588h332 q75 0 122 46.5t52 123.5h71l-45 -287h-813z" />
<glyph unicode="&#xa7;" horiz-adv-x="881" d="M63 711q0 165 175 270q-11 3 -33 23q-88 78 -88 188q0 130 92 207q86 71 221 71q31 0 91 -10t89 -10q61 0 68 35h67v-307l-65 -2q-9 91 -72 142q-60 48 -153 48q-203 0 -203 -154q0 -93 144 -154q134 -54 269 -109q144 -84 144 -232q0 -185 -197 -262q7 -10 52 -37 q139 -85 139 -240q0 -161 -105 -253q-99 -87 -264 -87q-36 0 -107.5 18.5t-109.5 18.5q-41 0 -47 -37h-68l-18 375h78v-20q0 -119 70.5 -183.5t189.5 -64.5q107 0 171 57t64 164q0 117 -154 187l-286 116q-154 86 -154 242zM201 721q0 -80 107 -144q52 -31 177 -77 q85 37 121 68q58 49 58 120q0 105 -114 162l-202 78q-147 -71 -147 -207z" />
<glyph unicode="&#xa8;" horiz-adv-x="0" d="M-233 1350v149h149v-149h-149zM80 1352v147h151v-147h-151z" />
<glyph unicode="&#xa9;" horiz-adv-x="1616" d="M100 649q0 281 198.5 479.5t479.5 198.5t479.5 -198.5t198.5 -479.5q0 -282 -197.5 -480t-480.5 -198q-281 0 -479.5 198.5t-198.5 479.5zM178 649q0 -247 176.5 -423.5t423.5 -176.5q248 0 424 176.5t176 423.5q0 248 -176 424t-424 176q-247 0 -423.5 -176t-176.5 -424 zM410 633q-1 160 103.5 275.5t262.5 115.5q37 0 105.5 -19t103.5 -20q38 -1 47 33h37l8 -252h-39q-15 89 -80.5 147.5t-154.5 59.5q-123 1 -199 -110q-67 -98 -67 -228q0 -135 64 -218q71 -90 202 -91q80 -1 139 26q45 21 117 80l22 -35q-136 -143 -293 -143 q-170 0 -274 104t-104 275z" />
<glyph unicode="&#xaa;" horiz-adv-x="1012" d="M37 332q0 217 183 313q102 53 376 96q71 12 91 24q33 20 46 79q4 18 4 49q0 184 -260 184q-277 0 -289 -162h-61l2 267h64q8 -25 53 -25q49 0 146.5 13t146.5 14h4q206 0 282 -105q63 -88 64 -305q0 -80 -3 -215q-5 -159 -5 -213v-14q0 -88 12 -154q22 -116 77 -116 q4 0 9 1v-63h-201q-26 105 -26 164q0 12 2 20q-106 -211 -353 -211q-157 0 -260.5 101t-103.5 258zM193 328q0 -99 68.5 -170.5t166.5 -71.5q307 0 307 500v98q-59 -30 -230 -60q-154 -28 -216 -73q-96 -69 -96 -223z" />
<glyph unicode="&#xab;" horiz-adv-x="705" d="M47 725l223 367h136l-209 -369l204 -358h-133zM332 725l221 367h135l-211 -369l209 -358h-133z" />
<glyph unicode="&#xac;" horiz-adv-x="1458" d="M29 459v106h1308v-565h-108v459h-1200z" />
<glyph unicode="&#xad;" horiz-adv-x="748" d="M123 668v131h516v-131h-516z" />
<glyph unicode="&#xae;" horiz-adv-x="1616" d="M98 639q0 280 199.5 479t478.5 199q280 0 479 -199t199 -479q0 -281 -198.5 -479.5t-479.5 -198.5t-479.5 198.5t-198.5 479.5zM176 637q0 -248 176 -423t424 -175q247 0 423.5 176.5t176.5 423.5t-177 423.5t-425 176.5t-423 -176.5t-175 -425.5zM453 297v35q96 0 96 51 v567q0 46 -23 55q-7 3 -63 3v36h336q268 0 268 -184q0 -82 -58.5 -139t-142.5 -57l236 -304q22 -28 72 -28v-35h-187l-262 348h-51v-256q0 -57 92 -57v-35h-313zM672 963l2 -273q114 5 169 26q91 36 91 128q0 82 -38 117q-34 30 -120 38q-43 5 -63 5q-42 0 -41 -41z" />
<glyph unicode="&#xb0;" horiz-adv-x="817" d="M98 1051q0 121 87 208t208 87q120 0 207.5 -88t87.5 -207q0 -121 -87 -207t-208 -86t-208 85.5t-87 207.5zM176 1051q0 -89 64 -152t153 -63t153 63t64 152q0 88 -65.5 151.5t-153.5 63.5q-89 0 -152 -63t-63 -152z" />
<glyph unicode="&#xb1;" horiz-adv-x="1120" d="M20 0v109h1039v-109h-1039zM20 694v109h465v465h109v-465h465v-109h-465v-467h-109v467h-465z" />
<glyph unicode="&#xb2;" d="M113 0q4 250 67 367q56 103 224 246q212 182 261 237q126 142 126 285h2q0 108 -84 173q-76 60 -189 60q-106 0 -176 -51q-81 -58 -76 -160h-78v313h76l8 -18l19 -8h12q47 0 140.5 15.5t140.5 15.5q153 0 256 -91q108 -94 108 -245q0 -193 -175 -360l-328 -278 q-179 -174 -185 -380h385q128 0 170 27q53 35 68 155h78l-29 -303h-821z" />
<glyph unicode="&#xb3;" d="M106 37v272h72q15 -131 87 -180q63 -43 200 -43q157 0 247 107q84 99 85 260q0 153 -88 241t-242 88q-37 0 -74 -6v80q72 86 181 235q133 184 176 238h-351q-79 0 -123 -41q-46 -44 -40 -123h-76v285h749v-100q-57 -70 -352 -467q186 -6 292 -122q103 -114 103 -300 q0 -232 -144 -358q-137 -119 -374 -119q-143 0 -328 53z" />
<glyph unicode="&#xb4;" horiz-adv-x="0" d="M-90 1352q45 29 119 107q104 110 114 120h187l-314 -229z" />
<glyph unicode="&#xb5;" horiz-adv-x="1178" d="M66 -299q0 54 27.5 158.5t27.5 158.5v965h168v-653q0 -99 43 -159q49 -67 143 -67q62 1 128.5 47t92.5 103v729h168v-756q0 -57 24 -105q30 -59 83 -59q54 0 75 47q15 45 29 91l39 -2q-49 -232 -240 -232q-86 0 -126 58q-29 40 -48 137q-135 -195 -311 -195 q-59 0 -108 30q-45 33 -91 66v-45q0 -54 32 -157.5t32 -157.5q0 -52 -21 -92q-25 -49 -71 -49q-48 0 -74 48q-22 39 -22 91z" />
<glyph unicode="&#xb6;" horiz-adv-x="1366" d="M180 1038q0 197 131 306q121 102 322 102h471v-111h-70v-1677h-119v1677h-294v-1677h-119v995q-151 25 -236.5 128.5t-85.5 256.5z" />
<glyph unicode="&#xb8;" horiz-adv-x="0" d="M-141 -395l47 57v2q13 -2 66 -18q40 -13 67 -13q37 0 67 19q35 22 35 57q0 72 -106 72q-34 0 -62 -8l-36 45l161 209h90l-131 -166l13 2q74 2 126 -30q62 -37 62 -107q0 -80 -69 -126q-60 -40 -144 -40q-99 0 -186 45z" />
<glyph unicode="&#xb9;" d="M281 1155v105q208 34 245 186h97l2 -1188q0 -91 14 -125q24 -57 102 -59v-74h-383v74h9q108 0 108 147v1014q-66 -76 -194 -80z" />
<glyph unicode="&#xba;" horiz-adv-x="1145" d="M78 565q0 252 116 422q133 197 373 197q250 0 384 -191q118 -168 118 -428q0 -246 -129 -411q-141 -179 -381 -179q-229 0 -363 186q-118 166 -118 404zM238 596q0 -514 337 -514q186 0 270 169q64 128 64 335q0 491 -344 491q-172 0 -259 -163q-68 -129 -68 -318z" />
<glyph unicode="&#xbb;" horiz-adv-x="705" d="M29 360l209 363l-205 362h135l217 -362l-221 -363h-135zM311 360l209 365l-203 360h134l217 -362l-224 -363h-133z" />
<glyph unicode="&#xbf;" horiz-adv-x="705" d="M72 268q0 108 77 237q5 8 143 204q77 109 77 170q0 41 -21 57q-20 4 -31 4l-34 53l186 123q35 -98 35 -188q0 -124 -73 -249q-67 -97 -135 -194q-73 -104 -73 -178q0 -96 55 -155t150 -60q146 -1 170 152h72l-43 -277h-68l-16 17l-17 6q-172 -15 -147 -15q-135 0 -221 80 t-86 213zM287 1253v185h182v-185h-182z" />
<glyph unicode="&#xc0;" horiz-adv-x="1319" d="M-6 0v72h2q90 10 139 117l62 186l104 303q58 162 115 323q86 249 86 304q0 61 -76 61v80h455l2 -78q-85 0 -86 -63q-1 -45 77 -267q51 -143 103 -286l82 -242q33 -99 106 -295q33 -78 53 -100q33 -38 101 -43v-72h-393v74q94 0 94 63q0 67 -113 363h-545 q-108 -303 -108 -357q0 -78 96 -69v-74h-356zM285 1833h182q67 -54 240 -231h-105q-24 11 -114.5 75t-202.5 156zM399 606h475l-241 703z" />
<glyph unicode="&#xc1;" horiz-adv-x="1319" d="M-6 0v72h2q90 10 139 117l62 186l104 303q58 162 115 323q86 249 86 304q0 61 -76 61v80h455l2 -78q-85 0 -86 -63q-1 -45 77 -267q51 -143 103 -286l82 -242q33 -99 106 -295q33 -78 53 -100q33 -38 101 -43v-72h-393v74q94 0 94 63q0 67 -113 363h-545 q-108 -303 -108 -357q0 -78 96 -69v-74h-356zM399 606h475l-241 703zM545 1614q47 39 127 129h-2q14 4 51 46q41 46 55 54h187l-310 -229h-108z" />
<glyph unicode="&#xc2;" horiz-adv-x="1319" d="M-4 0v72h2q90 10 139 117l62 186l104 303q58 162 115 323q86 249 86 304q0 61 -76 61v80h455l2 -78q-85 0 -86 -63q-1 -45 77 -267q51 -143 103 -286l82 -242q33 -99 106 -295q33 -78 53 -100q33 -38 101 -43v-72h-393v74q94 0 94 63q0 67 -113 363h-544 q-109 -303 -109 -357q0 -78 96 -69v-74h-356zM354 1581l242 285h88l238 -287h-125l-156 227l-160 -225h-127zM401 606h476l-242 703z" />
<glyph unicode="&#xc3;" horiz-adv-x="1319" d="M-4 0v72h2q90 10 139 117l62 186l104 303q58 162 115 323q86 249 86 304q0 61 -76 61v80h455l2 -78q-85 0 -86 -63q-1 -45 77 -267q51 -143 103 -286l82 -242q33 -99 106 -295q33 -78 53 -100q33 -38 101 -43v-72h-393v74q94 0 94 63q0 67 -113 363h-544 q-109 -303 -109 -357q0 -78 96 -69v-74h-356zM328 1638l34 134q63 55 134 55q50 0 142.5 -37.5t143.5 -38.5q70 -1 92 78h60l-37 -137q-70 -54 -147 -54q-45 0 -130 36.5t-133 37.5q-40 1 -62 -19q-14 -11 -40 -55h-57zM401 606h476l-242 703z" />
<glyph unicode="&#xc4;" horiz-adv-x="1319" d="M-4 0v72h2q90 10 139 117l62 186l104 303q58 162 115 323q86 249 86 304q0 61 -76 61v80h455l2 -78q-85 0 -86 -63q-1 -45 77 -267q51 -143 103 -286l82 -242q33 -99 106 -295q33 -78 53 -100q33 -38 101 -43v-72h-393v74q94 0 94 63q0 67 -113 363h-544 q-109 -303 -109 -357q0 -78 96 -69v-74h-356zM385 1618v149h152v-149h-152zM401 606h476l-242 703zM772 1616v151h150v-151h-150z" />
<glyph unicode="&#xc5;" horiz-adv-x="1319" d="M-6 0v74q85 0 139 113q2 5 64 186l75 223q67 185 133 369q101 287 101 342q0 69 -80 61v78h457v-78h-15q-69 0 -69 -59q0 -58 75 -272q53 -144 105 -287l166 -484q33 -97 56 -130q44 -66 118 -64v-72h-393l-2 74q96 0 96 63t-42 182q-35 92 -69 183h-547l-68 -182 q-40 -115 -40 -185q0 -32 34 -50q30 -15 62 -11v-74h-356zM397 606h475l-239 703zM489 1731q0 65 53 111t120 46q65 0 114 -50.5t49 -115.5t-50.5 -117.5t-115.5 -52.5q-73 0 -121.5 52.5t-48.5 126.5zM559 1729q-1 -45 28 -75t75 -30h-3q37 0 66.5 29.5t30.5 64.5 q1 42 -27 71.5t-70 29.5q-38 0 -68.5 -26.5t-31.5 -63.5z" />
<glyph unicode="&#xc6;" horiz-adv-x="1935" d="M-20 0v72q77 11 129 55q37 32 90 111l651 981q33 49 33 94q0 53 -78 57v68h987l23 -258h-70q-10 94 -72 127q-45 24 -149 24h-342v-487h372q69 0 93 23t24 91h72v-344h-72v7q0 79 -51 99q-21 8 -121 9q-135 2 -129 2h-188v-618h391q196 0 213 180h69l-16 -293h-915v72 q104 13 104 129v530l-373 2q-103 -155 -206 -311q-164 -252 -164 -291q0 -57 80 -57v-74h-385zM727 844h303v463z" />
<glyph unicode="&#xc7;" d="M84 702q0 323 127 522q152 236 457 236q49 0 130 -12q104 -16 130 -18q33 14 30 34h70l6 -293h-73q-6 96 -106 144q-78 38 -185 39q-428 2 -428 -631q0 -635 428 -635q124 0 213 56q104 65 104 182h74l-8 -234q-127 -56 -182 -75q-100 -34 -191 -40l-94 -116h12 q76 0 126 -29q62 -36 62 -106q0 -82 -68 -127q-60 -39 -145 -39q-101 0 -184 45l49 57q101 -29 129 -29q103 0 103 76q0 72 -107 72q-34 0 -61 -8l-35 45l125 164q-258 21 -394 249q-114 193 -114 471z" />
<glyph unicode="&#xc8;" horiz-adv-x="1057" d="M72 1368v74h870l23 -262l-74 2q-8 89 -75 123q-49 24 -150 24q-57 0 -169.5 -1t-168.5 -1v-479h356q39 0 64 5q81 17 69 112h74v-340h-74v10q0 66 -35 86q-24 14 -94 14q-34 0 -101 2t-100 2h-159v-622h362q117 0 168 30q64 39 76 148h72l-23 -293h-909v74h8q94 0 94 141 l-2 1016q0 68 -17 96q-22 36 -85 39zM162 1833h182v2q59 -45 238 -233h-107q-104 77 -313 231z" />
<glyph unicode="&#xc9;" horiz-adv-x="1057" d="M70 1366v74h870l23 -262l-74 2q-9 89 -75 123q-49 24 -150 24q-57 0 -169.5 -1t-168.5 -1v-479h356q39 0 64 5q81 16 69 112h74v-340h-74v10q0 66 -35 86q-25 14 -94 14q-34 0 -101 2t-100 2h-159v-622h362q117 0 168 30q64 39 76 148h72l-23 -293h-909v74h8q94 0 94 141 l-2 1016q0 68 -17 96q-22 36 -85 39zM420 1614q44 41 127 129h-2q14 4 51 46q41 46 55 54h187l-312 -229h-106z" />
<glyph unicode="&#xca;" horiz-adv-x="1057" d="M72 1366v74h870l23 -262l-74 2q-8 89 -75 123q-49 24 -150 24q-57 0 -169.5 -1t-168.5 -1v-479h356q39 0 64 5q81 16 69 112h74v-340h-74v10q0 66 -35 86q-24 14 -94 14q-34 0 -101 2t-100 2h-159v-622h362q117 0 168 30q64 39 76 148h72l-23 -293h-909v74h8q94 0 94 141 l-2 1016q0 68 -17 96q-22 36 -85 39zM227 1581l244 285h90l236 -287h-127l-154 227l-160 -225h-129z" />
<glyph unicode="&#xcb;" horiz-adv-x="1057" d="M72 1366v74h870l23 -262l-74 2q-8 89 -75 123q-49 24 -150 24q-57 0 -169.5 -1t-168.5 -1v-479h356q39 0 64 5q81 16 69 112h74v-340h-74v10q0 66 -35 86q-24 14 -94 14q-34 0 -101 2t-100 2h-159v-622h362q117 0 168 30q64 39 76 148h72l-23 -293h-909v74h8q94 0 94 141 l-2 1016q0 68 -17 96q-22 36 -85 39zM233 1624v148h152v-148h-152zM623 1622v152h149v-152h-149z" />
<glyph unicode="&#xcc;" horiz-adv-x="485" d="M-115 1833h185v-2q132 -140 237 -229h-104q-25 11 -117 77q-109 79 -201 154zM70 72q108 0 108 133q0 15 -1 45t-1 45v936q0 74 -14 100q-22 38 -90 35v78h364v-80q-66 0 -89 -33q-19 -27 -19 -96q0 -172 2 -515.5t2 -514.5q0 -138 106 -133v-74h-366z" />
<glyph unicode="&#xcd;" horiz-adv-x="485" d="M70 74q108 0 108 133q0 15 -1 45t-1 45v936q0 74 -14 100q-22 38 -90 35v78h364v-80q-66 0 -89 -33q-19 -27 -19 -96q0 -172 2 -515.5t2 -514.5q0 -138 106 -133v-74h-366zM145 1614q70 82 230 229h188l-311 -229h-107z" />
<glyph unicode="&#xce;" horiz-adv-x="485" d="M-45 1581l242 285h88l237 -287h-127l-155 227l-158 -225h-127zM70 74q108 0 108 133q0 15 -1 45t-1 45v936q0 74 -14 100q-22 38 -90 35v78h364v-80q-66 0 -89 -33q-19 -27 -19 -96q0 -172 2 -515.5t2 -514.5q0 -138 106 -133v-74h-366z" />
<glyph unicode="&#xcf;" horiz-adv-x="485" d="M-41 1624v148h152v-148h-152zM70 74q108 0 108 133q0 15 -1 45t-1 45v936q0 74 -14 100q-22 38 -90 35v78h364v-80q-66 0 -89 -33q-19 -27 -19 -96q0 -172 2 -515.5t2 -514.5q0 -138 106 -133v-74h-366zM348 1622v152h150v-152h-150z" />
<glyph unicode="&#xd1;" horiz-adv-x="1319" d="M70 0v72q64 0 86 43q16 31 16 102l-2 987q0 67 -7 92q-13 48 -59 66q-16 6 -32 6v78h247q130 -217 392 -649q117 -190 344 -574q0 11 -1 34t-1 34v952q0 87 -90 125h-17v78h314v-76q-68 -4 -89 -50q-14 -30 -14 -108v-1212h-131l-747 1221v-996q0 -80 17 -109 q23 -39 97 -44v-72h-323zM328 1638l34 134q63 55 134 55q50 0 142.5 -37.5t143.5 -38.5q70 -1 92 78h60l-37 -137q-70 -54 -147 -54q-45 0 -130 36.5t-133 37.5q-40 1 -62 -19q-14 -11 -40 -55h-57z" />
<glyph unicode="&#xd2;" horiz-adv-x="1276" d="M84 698q0 318 119 519q146 247 442 247q289 0 434 -238q119 -196 119 -503q0 -304 -120 -505q-146 -245 -429 -245q-300 0 -444 223q-121 186 -121 502zM240 698q0 -248 75 -406q102 -212 322 -212q401 0 401 649q0 627 -405 627q-393 0 -393 -658zM268 1833h183v-2 q45 -37 119 -114q79 -82 118 -115h-106q-83 55 -165 111q-108 76 -149 120z" />
<glyph unicode="&#xd3;" horiz-adv-x="1276" d="M84 700q0 318 119 519q146 247 442 247q289 0 434 -237q119 -197 119 -504q0 -304 -120 -505q-146 -245 -429 -245q-300 0 -444 223q-121 186 -121 502zM240 700q0 -248 75 -406q102 -212 322 -212q401 0 401 649q0 627 -405 627q-393 0 -393 -658zM526 1614q37 40 76 78 l156 151h186l-311 -229h-107z" />
<glyph unicode="&#xd4;" horiz-adv-x="1276" d="M84 700q0 318 119 519q146 247 442 247q289 0 434 -237q119 -197 119 -504q0 -304 -120 -505q-146 -245 -429 -245q-300 0 -444 223q-121 186 -121 502zM240 700q0 -248 75 -406q102 -212 322 -212q401 0 401 649q0 627 -405 627q-393 0 -393 -658zM336 1581l242 285h88 l239 -287h-129l-155 227l-156 -225h-129z" />
<glyph unicode="&#xd5;" horiz-adv-x="1276" d="M82 700q0 318 119 519q146 247 442 247q289 0 434 -237q119 -197 119 -504q0 -304 -120 -505q-146 -245 -429 -245q-300 0 -445 223q-120 186 -120 502zM238 700q0 -248 75 -406q102 -212 322 -212q401 0 401 649q0 627 -405 627q-393 0 -393 -658zM311 1638l31 134h-2 q83 55 137 55q51 0 142.5 -37.5t140.5 -38.5q71 -1 96 78h59l-38 -137q-82 -54 -148 -54q-43 0 -127 36t-131 36q-34 0 -65 -19q-34 -21 -37 -53h-58z" />
<glyph unicode="&#xd6;" horiz-adv-x="1276" d="M84 705q0 316 120 516q147 245 443 245q288 0 431 -236q118 -195 118 -503q0 -311 -119 -509q-146 -243 -436 -243q-291 0 -436 230q-121 191 -121 500zM240 688q0 -244 79 -401q104 -205 324 -205q224 0 324 214q73 157 73 411q0 651 -395 651q-244 0 -340 -230 q-65 -155 -65 -440zM365 1618v149h151v-149h-151zM754 1616v151h149v-151h-149z" />
<glyph unicode="&#xd8;" horiz-adv-x="1276" d="M25 82l147 176q-90 178 -90 442q0 297 120 507q146 255 421 255q151 0 230 -36q58 -27 185 -140l136 164l77 -64l-157 -188q99 -185 100 -459q1 -313 -122 -517q-148 -247 -443 -247q-259 0 -406 195l-123 -147zM233 709q0 -62 18 -166q19 -116 21 -164l678 803 q-100 178 -311 178q-229 0 -331 -227q-75 -165 -75 -424zM313 274q99 -194 310 -194q415 0 415 647q0 207 -45 352z" />
<glyph unicode="&#xd9;" horiz-adv-x="1276" d="M37 1366v72h364v-74h-8q-98 0 -98 -141v-781q0 -173 99 -265q96 -89 272 -89q356 0 356 410v704q0 78 -15 113q-24 54 -92 49v74h326v-74q-2 0 -6 1t-6 1q-94 0 -99 -168q-2 -74 -2 -242q0 -78 1 -236t1 -237q0 -235 -129 -370q-132 -138 -366 -138q-224 0 -356 122 q-136 125 -136 347v811q0 58 -23.5 82t-82.5 29zM268 1833h183v-2q45 -37 119 -114q79 -82 118 -115h-106q-83 55 -165 111q-108 76 -149 120z" />
<glyph unicode="&#xda;" horiz-adv-x="1276" d="M37 1368v72h364v-74h-8q-98 0 -98 -141v-781q0 -173 99 -265q96 -89 272 -89q356 0 356 410v704q0 78 -15 113q-24 54 -92 49v74h326v-74q-2 0 -6 1t-6 1q-94 0 -99 -168q-2 -74 -2 -242q0 -78 1 -236t1 -237q0 -235 -129 -370q-132 -138 -366 -138q-224 0 -356 122 q-136 126 -136 347v811q0 58 -23.5 82t-82.5 29zM526 1614q37 40 76 78l156 151h186l-311 -229h-107z" />
<glyph unicode="&#xdb;" horiz-adv-x="1276" d="M37 1368v72h364v-74h-8q-98 0 -98 -141v-781q0 -173 99 -265q96 -89 272 -89q356 0 356 410v704q0 78 -15 113q-24 54 -92 49v74h326v-74q-2 0 -6 1t-6 1q-94 0 -99 -168q-2 -74 -2 -242q0 -78 1 -236t1 -237q0 -235 -129 -370q-132 -138 -366 -138q-224 0 -356 122 q-136 126 -136 347v811q0 58 -23.5 82t-82.5 29zM336 1581l242 285h88l239 -287h-129l-155 227l-156 -225h-129z" />
<glyph unicode="&#xdc;" horiz-adv-x="1276" d="M37 1368v72h364v-74h-8q-98 0 -98 -141v-781q0 -173 99 -265q96 -89 272 -89q356 0 356 410v704q0 78 -15 113q-24 54 -92 49v74h326v-74q-2 0 -6 1t-6 1q-94 0 -99 -168q-2 -74 -2 -242q0 -78 1 -236t1 -237q0 -235 -129 -370q-132 -138 -366 -138q-224 0 -356 122 q-136 126 -136 347v811q0 58 -23.5 82t-82.5 29zM410 1616v149h151v-149h-151zM799 1616v151h149v-151h-149z" />
<glyph unicode="&#xdd;" horiz-adv-x="1231" d="M560 1588q16 25 63.5 64t63.5 65h-2q14 4 52 46q40 46 54 54h187l-310 -229h-108zM-2 1368v78h381v-78q-2 0 -6 1t-6 1q-52 0 -52 -49q0 -39 141 -281q88 -150 177 -301q4 29 67 133q72 114 143 228q111 183 111 223q0 49 -63 49v74h340v-76h-8q-78 0 -157 -105 q-13 -17 -105 -169q-90 -148 -273 -439v-438q0 -79 13 -106q20 -41 86 -41h6v-72h-359v70q103 2 103 135v454q-201 317 -308 490q-83 136 -90 143q-61 76 -139 76h-2z" />
<glyph unicode="&#xdf;" horiz-adv-x="1057" d="M29 0v61q98 5 98 150l2 651q2 238 9 301q19 160 93 240q90 98 279 98q163 0 271 -75q124 -86 124 -242q0 -97 -50 -167q-20 -29 -92 -94q-50 -44 -50 -79q0 -44 82 -107q115 -87 153 -133q82 -101 82 -237q0 -154 -108 -270q-110 -120 -263 -120q-138 0 -264 50v213 l68 -2v-11q0 -60 59 -102q54 -38 115 -39q109 -1 173 77q60 72 60 183q0 124 -77 219q-16 19 -144 135q-78 69 -78 131t93.5 154.5t93.5 188.5q0 109 -79 170q-72 55 -185 55q-213 0 -213 -322v-864q0 -100 -39 -213h-213z" />
<glyph unicode="&#xe0;" horiz-adv-x="1012" d="M37 332q0 217 183 313q102 53 376 96q71 12 91 24q33 20 46 79q4 18 4 49q0 184 -260 184q-277 0 -289 -162h-61l2 267h64q8 -25 53 -25q49 0 146.5 13t146.5 14q209 1 286 -105q63 -88 64 -305q0 -80 -3 -215q-5 -159 -5 -213q-1 -96 12 -168q24 -125 86 -115v-63h-201 q-26 105 -26 164q0 12 2 20q-106 -211 -353 -211q-157 0 -260.5 101t-103.5 258zM141 1565h185q188 -159 237 -230h-102zM193 328q0 -99 68.5 -170.5t166.5 -71.5q307 0 307 500v98q-59 -30 -230 -60q-154 -28 -216 -73q-96 -69 -96 -223z" />
<glyph unicode="&#xe1;" horiz-adv-x="1012" d="M37 332q0 217 183 313q102 53 376 96q71 12 91 24q33 20 46 79q4 18 4 49q0 184 -260 184q-277 0 -289 -162h-61l2 267h64q8 -25 53 -25q49 0 146.5 13t146.5 14q209 1 286 -105q63 -88 64 -305q0 -80 -3 -215q-5 -159 -5 -213q-1 -96 12 -168q24 -125 86 -115v-63h-201 q-26 105 -26 164q0 12 2 20q-106 -211 -353 -211q-157 0 -260.5 101t-103.5 258zM193 328q0 -99 68.5 -170.5t166.5 -71.5q307 0 307 500v98q-59 -30 -230 -60q-154 -28 -216 -73q-96 -69 -96 -223zM395 1350q20 13 118 109q94 93 116 120h188l-313 -229h-109z" />
<glyph unicode="&#xe2;" horiz-adv-x="1012" d="M37 332q0 217 183 313q102 53 376 96q71 12 91 24q33 20 46 79q4 18 4 49q0 184 -260 184q-277 0 -289 -162h-61l2 267h64q8 -25 53 -25q49 0 146.5 13t146.5 14q209 1 286 -105q63 -88 64 -305q0 -80 -3 -215q-5 -159 -5 -213q-1 -96 12 -168q24 -125 86 -115v-63h-201 q-26 105 -26 164q0 12 2 20q-106 -211 -353 -211q-157 0 -260.5 101t-103.5 258zM193 328q0 -99 68.5 -170.5t166.5 -71.5q307 0 307 500v98q-59 -30 -230 -60q-154 -28 -216 -73q-96 -69 -96 -223zM211 1303q87 118 112 151q66 84 123 141h86q76 -65 242 -286h-125 l-160 227l-153 -231z" />
<glyph unicode="&#xe3;" horiz-adv-x="1012" d="M37 332q0 217 183 313q102 53 376 96q71 12 91 24q33 20 46 79q4 18 4 49q0 184 -260 184q-277 0 -289 -162h-61l2 267h64q8 -25 53 -25q49 0 146.5 13t146.5 14q209 1 286 -105q63 -88 64 -305q0 -80 -3 -215q-5 -159 -5 -213q-1 -96 12 -168q24 -125 86 -115v-63h-201 q-26 105 -26 164q0 12 2 20q-106 -211 -353 -211q-157 0 -260.5 101t-103.5 258zM186 1370l35 135q61 56 148 56q43 0 128.5 -35t133.5 -35q88 0 100 74h62l-35 -140q-95 -51 -146 -51q-47 0 -133 37.5t-133 38.5q-55 1 -102 -80h-58zM193 328q0 -99 68.5 -170.5 t166.5 -71.5q307 0 307 500v98q-59 -30 -230 -60q-154 -28 -216 -73q-96 -69 -96 -223z" />
<glyph unicode="&#xe4;" horiz-adv-x="1012" d="M33 334q0 201 151 294q95 59 301 91q188 29 218 60t30 124q0 91 -84 136q-67 36 -166 36q-165 0 -262 -76q-15 -26 -37 -88h-61l4 271h61q17 -27 54 -27q48 0 143.5 13.5t144.5 13.5q196 0 277 -87q78 -83 78 -280q0 -84 -2 -252t-2 -252q0 -213 84 -248h14v-63l-203 2 q-10 36 -24 182q-114 -211 -342 -211q-167 0 -270 96q-107 99 -107 265zM190 317q0 -93 72 -163t166 -70q141 0 226 120q75 107 75 253v225q-63 -29 -237 -61q-150 -28 -211 -74q-91 -70 -91 -230zM276 1348v149h152v-149h-152zM592 1350v147h151v-147h-151z" />
<glyph unicode="&#xe5;" horiz-adv-x="1012" d="M37 334q0 205 162 302q97 58 314 94q186 30 208 67q20 34 20 77q0 207 -270 207q-260 0 -281 -161h-61l4 268h64q18 -27 47 -27q49 0 146 13.5t147 13.5q193 0 275 -88q79 -85 79 -279q0 -60 -3 -181t-3 -181v-203q0 -181 94 -190v-66h-203q-24 107 -24 166q0 15 2 24 q-109 -215 -361 -215q-153 0 -254.5 103t-101.5 256zM195 338q0 -106 68 -177t171 -71q301 0 301 469v125q-36 -24 -162 -43q-190 -29 -263 -72q-116 -69 -115 -231zM352 1464q0 66 52 111t118 45h2q67 0 114.5 -49.5t47.5 -116.5q0 -71 -50 -118.5t-122 -47.5t-118 53 q-44 50 -44 123zM422 1462q0 -42 28 -73.5t70 -32.5q96 -2 96 96t-102 100q-34 1 -63 -27.5t-29 -62.5z" />
<glyph unicode="&#xe6;" horiz-adv-x="1716" d="M27 354q0 146 133 252q80 64 225 89q208 36 240 46q59 20 79.5 45.5t20.5 85.5q0 119 -83 166q-62 35 -191 35q-248 0 -271 -160h-59v269l65 2q8 -30 52 -31q48 -1 141.5 11t138.5 12q123 0 191 -29q83 -35 141 -129q85 93 146 128q77 44 188 44q230 0 349 -185 q100 -155 103 -399h-762v-59q0 -185 103 -312q110 -137 291 -137q253 0 317 205h62l-17 -209q-208 -110 -399 -110q-163 0 -271 75q-97 68 -180 220q-78 -162 -138 -220q-90 -88 -239 -88q-176 0 -276 103.5t-100 279.5zM180 324q0 -104 67.5 -173t170.5 -69q165 0 242 146 q59 112 59 294v152q-41 -26 -162 -45q-186 -30 -260 -75q-117 -71 -117 -230zM879 713h591v30q0 133 -76 231q-83 105 -212 105q-136 0 -222 -118q-75 -105 -81 -248z" />
<glyph unicode="&#xe7;" horiz-adv-x="1014" d="M76 573q0 255 142 428q152 187 403 187q32 0 93.5 -11.5t92.5 -11.5q26 0 43 27h59v-274h-61q-26 159 -221 159q-192 0 -300 -167q-91 -143 -91 -347q0 -185 110 -323q118 -149 299 -148q86 1 161 55q83 60 75 142h65l-24 -228q-99 -73 -285 -86l-92 -114l12 2 q74 2 127 -30q61 -37 61 -107q0 -81 -69 -126q-60 -40 -146 -40q-97 0 -184 45l47 59q113 -31 133 -31q101 0 101 76q0 71 -105 74q-33 1 -61 -10l-37 45l125 159q-221 24 -352 202q-121 166 -121 394z" />
<glyph unicode="&#xe8;" horiz-adv-x="1057" d="M74 594q0 229 112 399q129 195 346 195q224 0 348 -165q113 -149 113 -380v-39h-760v-33q0 -192 97 -327q108 -152 293 -152q116 0 200 48q98 54 121 159h64l-21 -211q-174 -113 -375 -113q-257 0 -403 185q-135 170 -135 434zM164 1565h184l-2 -2q62 -55 124 -109 q73 -65 114 -119h-103zM238 709h593v28q0 130 -76 230q-83 108 -208 108q-140 0 -223 -118q-69 -97 -86 -248z" />
<glyph unicode="&#xe9;" horiz-adv-x="1057" d="M76 596q0 229 112 399q129 195 347 195q223 0 347 -165q113 -149 113 -380v-39h-759v-33q0 -192 96 -327q108 -152 293 -152q116 0 200 48q98 54 121 159h64l-21 -211q-174 -113 -375 -113q-257 0 -403 185q-135 170 -135 434zM240 711h594v28q0 130 -77 230 q-83 108 -208 108q-140 0 -223 -118q-69 -97 -86 -248zM416 1348q39 38 117.5 115t117.5 116h187l-314 -229z" />
<glyph unicode="&#xea;" horiz-adv-x="1057" d="M76 596q0 229 112 399q129 195 347 195q223 0 347 -165q113 -149 113 -380v-39h-759v-33q0 -192 96 -327q108 -152 293 -152q116 0 200 48q98 54 121 159h64l-21 -211q-174 -113 -375 -113q-257 0 -403 185q-135 170 -135 434zM233 1305q37 50 117 145t117 145h88 q39 -60 117 -146q104 -115 125 -140h-127l-158 227l-156 -231h-123zM240 711h594v28q0 130 -77 230q-83 108 -208 108q-140 0 -223 -118q-69 -97 -86 -248z" />
<glyph unicode="&#xeb;" horiz-adv-x="1057" d="M76 596q0 229 112 399q129 195 347 195q223 0 347 -165q113 -149 113 -380v-39h-759v-33q0 -192 96 -327q108 -152 293 -152q116 0 200 48q98 54 121 159h64l-21 -211q-174 -113 -375 -113q-257 0 -403 185q-135 170 -135 434zM240 711h594v28q0 130 -77 230 q-83 108 -208 108q-140 0 -223 -118q-69 -97 -86 -248zM272 1350v149h152v-149h-152zM590 1352v147h151v-147h-151z" />
<glyph unicode="&#xec;" horiz-adv-x="440" d="M-129 1565h182l-2 -2q62 -55 124 -109q74 -65 114 -119h-103zM61 1100v61h252v-966q0 -75 11 -96q18 -33 84 -40v-61h-345v61q9 0 13 -2q84 0 84 109l-2 801q0 135 -72 137q-7 0 -25 -4z" />
<glyph unicode="&#xed;" horiz-adv-x="440" d="M63 1102v61h252v-966q0 -75 11 -96q18 -33 84 -40v-61h-344v61q8 0 12 -2q84 0 84 109l-2 801q0 135 -72 137q-7 0 -25 -4zM123 1350q57 41 235 229h187l-316 -229h-106z" />
<glyph unicode="&#xee;" horiz-adv-x="440" d="M-61 1305q80 95 235 290h86q93 -79 242 -286h-127l-158 227l-154 -231h-124zM63 1102v61h252v-966q0 -75 11 -96q18 -33 84 -40v-61h-344v61q8 0 12 -2q84 0 84 109l-2 801q0 135 -72 137q-7 0 -25 -4z" />
<glyph unicode="&#xef;" horiz-adv-x="440" d="M-23 1350v149h152v-149h-152zM63 1102v61h252v-966q0 -75 11 -96q18 -33 84 -40v-61h-344v61q8 0 12 -2q84 0 84 109l-2 801q0 135 -72 137q-7 0 -25 -4zM295 1352v147h151v-147h-151z" />
<glyph unicode="&#xf1;" horiz-adv-x="1188" d="M68 0v66h6q88 0 88 141l2 764q0 121 -94 131v63h243l-2 -155q112 186 359 186q184 0 278 -108q90 -102 90 -289v-598q0 -69 13 -94q19 -37 82 -41v-66h-342v66h10q86 0 86 118v586q0 316 -242 317q-153 1 -245 -103q-89 -100 -89 -255q0 -31 4 -522q1 -69 7 -86 q12 -35 63 -55h21v-66h-338zM270 1370l35 135q61 56 148 56q43 0 129 -35t135 -35q86 0 98 74h62l-35 -138q-88 -53 -144 -53q-48 0 -134.5 37t-133.5 37q-56 0 -102 -78h-58z" />
<glyph unicode="&#xf2;" horiz-adv-x="1145" d="M78 565q0 252 116 422q133 197 373 197q250 0 384 -191q118 -168 118 -428q0 -246 -129 -411q-141 -179 -381 -179q-229 0 -363 186q-118 166 -118 404zM207 1565h182l126 -108q73 -66 112 -122h-105zM238 596q0 -514 337 -514q186 0 270 169q64 128 64 335 q0 491 -344 491q-172 0 -259 -163q-68 -129 -68 -318z" />
<glyph unicode="&#xf3;" horiz-adv-x="1145" d="M78 565q0 252 116 422q133 197 373 197q250 0 384 -191q118 -168 118 -428q0 -246 -129 -411q-141 -179 -381 -179q-229 0 -363 186q-118 166 -118 404zM238 596q0 -514 337 -514q186 0 270 169q64 128 64 335q0 491 -344 491q-172 0 -259 -163q-68 -129 -68 -318z M459 1348q155 155 235 231h187l-316 -229z" />
<glyph unicode="&#xf4;" horiz-adv-x="1145" d="M78 565q0 252 116 422q133 197 373 197q250 0 384 -191q118 -168 118 -428q0 -246 -129 -411q-141 -179 -381 -179q-229 0 -363 186q-118 166 -118 404zM238 596q0 -514 337 -514q186 0 270 169q64 128 64 335q0 491 -344 491q-172 0 -259 -163q-68 -129 -68 -318z M270 1305q81 96 240 290l86 -2q42 -36 244 -284h-127l-158 227l-156 -231h-129z" />
<glyph unicode="&#xf5;" horiz-adv-x="1145" d="M78 565q0 252 116 422q133 197 373 197q250 0 384 -191q118 -168 118 -428q0 -246 -129 -411q-141 -179 -381 -179q-229 0 -363 186q-118 166 -118 404zM238 596q0 -514 337 -514q186 0 270 169q64 128 64 335q0 491 -344 491q-172 0 -259 -163q-68 -129 -68 -318z M250 1370l33 135q73 56 147 56q45 0 131 -35.5t133 -36.5q33 -1 68 20q16 17 35 56h59l-37 -140q-84 -51 -143 -51q-47 0 -133 37t-133 37q-69 0 -101 -78h-59z" />
<glyph unicode="&#xf6;" horiz-adv-x="1145" d="M78 555q0 254 114 427q132 202 373 202q244 0 381 -185q123 -165 123 -417q0 -250 -120 -418q-136 -189 -376 -189q-235 0 -371 177q-124 161 -124 403zM238 596q0 -514 340 -514q331 0 331 508q0 194 -65 321q-84 164 -260 164q-346 0 -346 -479zM340 1352v147h149v-147 h-149zM655 1352v147h150v-147h-150z" />
<glyph unicode="&#xf7;" horiz-adv-x="1120" d="M20 465v106h1035v-106h-1035zM418 250q0 45 32 77.5t76 32.5q45 0 78 -33t33 -77q0 -45 -33 -78t-78 -33q-44 0 -76 33t-32 78zM418 786q0 45 32 78t76 33q45 0 78 -33t33 -78q0 -44 -33 -77t-78 -33q-44 0 -76 33t-32 77z" />
<glyph unicode="&#xf8;" horiz-adv-x="1145" d="M25 51l141 158q-88 207 -88 364q0 251 119 420q136 193 376 193q181 0 334 -148l129 148l72 -70l-143 -160q92 -172 92 -372q0 -237 -119 -410q-134 -197 -360 -197q-119 0 -193 36q-54 25 -160 114l-127 -143zM238 567q0 -115 32 -239l551 614q-96 139 -254 139 q-175 0 -262 -179q-67 -139 -67 -335zM317 225q84 -143 238 -143q190 0 276 172q66 130 66 342q0 109 -35 248z" />
<glyph unicode="&#xf9;" horiz-adv-x="1145" d="M25 1098v63h247v-774q0 -300 260 -301q149 -1 239 118q81 108 81 261v498q-1 135 -92 135v63h237v-958q0 -65 18 -94q22 -37 83 -41v-68h-242v170q-91 -107 -153 -144q-81 -49 -205 -49q-177 0 -276 98.5t-99 276.5l2 611q0 144 -100 135zM207 1565h182l126 -108 q73 -66 112 -122h-105z" />
<glyph unicode="&#xfa;" horiz-adv-x="1145" d="M25 1098v63h247v-774q0 -300 260 -301q149 -1 239 118q81 108 81 261v498q-1 135 -92 135v63h237v-958q0 -65 18 -94q22 -37 83 -41v-68h-242v170q-91 -107 -153 -144q-81 -49 -205 -49q-177 0 -276 98.5t-99 276.5l2 611q0 144 -100 135zM459 1348q155 155 235 231h187 l-316 -229z" />
<glyph unicode="&#xfb;" horiz-adv-x="1145" d="M25 1098v63h247v-774q0 -300 260 -301q149 -1 239 118q81 108 81 261v498q-1 135 -92 135v63h237v-958q0 -65 18 -94q22 -37 83 -41v-68h-242v170q-91 -107 -153 -144q-81 -49 -205 -49q-177 0 -276 98.5t-99 276.5l2 611q0 144 -100 135zM270 1305q81 96 240 290l86 -2 q42 -36 244 -284h-127l-158 227l-156 -231h-129z" />
<glyph unicode="&#xfc;" horiz-adv-x="1145" d="M25 1098v63h247v-774q0 -300 260 -301q149 -1 239 118q81 108 81 261v498q-1 135 -92 135v63h237v-958q0 -65 18 -94q22 -37 83 -41v-68h-242v170q-91 -107 -153 -144q-81 -49 -205 -49q-177 0 -276 98.5t-99 276.5l2 611q0 144 -100 135zM332 1352v147h149v-147h-149z M651 1356v143h152v-143h-152z" />
<glyph unicode="&#xfd;" d="M500 1308q45 29 119 107q104 110 114 120h187l-314 -229zM6 1102v63h363v-63q-2 0 -6.5 1t-6.5 1q-57 0 -57 -68q0 -38 33 -135l235 -696l267 751q18 52 18 82q0 66 -84 66v61h332v-61q-82 -9 -115 -64q-5 -8 -49 -129l-383 -1052q-28 -87 -90 -258h-254v67h8 q125 0 191 109q23 37 84 217q-49 142 -304 874q-53 153 -53 154q-42 80 -125 80h-4z" />
<glyph unicode="&#xff;" d="M6 1102v63h363v-63q-2 0 -6.5 1t-6.5 1q-57 0 -57 -68q0 -38 33 -135l235 -696l267 751q18 52 18 82q0 66 -84 66v61h332v-61q-82 -9 -115 -64q-5 -8 -49 -129l-383 -1052q-28 -87 -90 -258h-254v67h8q125 0 191 109q23 37 84 217q-49 142 -304 874q-53 153 -53 154 q-42 80 -125 80h-4zM295 1350v149h151v-149h-151zM612 1352v147h150v-147h-150z" />
<glyph unicode="&#x152;" horiz-adv-x="1849" d="M84 702q0 326 126 527q153 241 460 241q26 0 245 -26q34 -4 166 -4l633 -2l25 -262h-72q-17 97 -84 130q-48 23 -160 23h-323v-485h47q51 0 153 -1t152 -1q76 0 104 20q35 24 35 96h72v-344h-74l2 11q2 73 -56 95q-32 13 -120 13h-315v-620h379q104 0 149.5 36t73.5 138 h72l-25 -287l-756 2q-54 0 -159 -13.5t-158 -13.5q-301 0 -457 222q-135 193 -135 505zM244 727q0 -649 458 -649q149 0 198 50q46 48 46 196l2 866q0 111 -78 150q-54 28 -178 28q-448 0 -448 -641z" />
<glyph unicode="&#x153;" horiz-adv-x="1890" d="M72 580q0 244 121 416q137 193 372 192q128 -1 239.5 -70t160.5 -184q146 256 407 256q212 0 332 -180q104 -156 104 -379v-29h-759v-45q0 -194 102 -324q112 -141 303 -141q225 0 305 205h64l-21 -207q-53 -50 -193 -84q-119 -29 -214 -29q-112 0 -216 52 q-109 53 -169 143q-13 21 -39 61q-148 -256 -404 -256q-240 0 -375 188q-120 166 -120 415zM231 547q0 -175 77 -306q91 -156 253 -157q184 -1 267 175q61 130 61 339v-2q0 188 -67 318q-86 165 -257 165q-334 0 -334 -532zM1055 707h592q-40 368 -281 368q-130 0 -223 -112 q-88 -106 -88 -238v-18z" />
<glyph unicode="&#x178;" horiz-adv-x="1231" d="M-2 1368v78h381v-78q-2 0 -6 1t-6 1q-52 0 -52 -49q0 -39 141 -281q88 -150 177 -301q4 29 67 133q72 114 143 228q111 183 111 223q0 49 -63 49v74h340v-76h-8q-78 0 -157 -105q-13 -17 -105 -169q-90 -148 -273 -439v-438q0 -79 13 -106q21 -43 92 -41v-72h-359v70 q103 2 103 135v454q-201 317 -308 490q-83 136 -90 143q-62 77 -141 76zM317 1624v148h150v-148h-150zM707 1622v152h149v-152h-149z" />
<glyph unicode="&#x2c6;" horiz-adv-x="0" d="M-276 1305q79 96 235 290l86 2q50 -43 126 -138l118 -150h-125l-160 227l-156 -231h-124z" />
<glyph unicode="&#x2dc;" horiz-adv-x="0" d="M-301 1370l33 135q73 56 147 56q45 0 131 -35t133 -35q67 0 103 74h59l-35 -140q-91 -51 -145 -51q-47 0 -133 37t-133 37q-69 0 -101 -78h-59z" />
<glyph unicode="&#x2000;" horiz-adv-x="944" />
<glyph unicode="&#x2001;" horiz-adv-x="1888" />
<glyph unicode="&#x2002;" horiz-adv-x="944" />
<glyph unicode="&#x2003;" horiz-adv-x="1888" />
<glyph unicode="&#x2004;" horiz-adv-x="629" />
<glyph unicode="&#x2005;" horiz-adv-x="472" />
<glyph unicode="&#x2006;" horiz-adv-x="314" />
<glyph unicode="&#x2007;" horiz-adv-x="314" />
<glyph unicode="&#x2008;" horiz-adv-x="236" />
<glyph unicode="&#x2009;" horiz-adv-x="377" />
<glyph unicode="&#x200a;" horiz-adv-x="104" />
<glyph unicode="&#x2010;" horiz-adv-x="748" d="M123 668v131h516v-131h-516z" />
<glyph unicode="&#x2011;" horiz-adv-x="748" d="M123 668v131h516v-131h-516z" />
<glyph unicode="&#x2012;" horiz-adv-x="748" d="M123 668v131h516v-131h-516z" />
<glyph unicode="&#x2013;" d="M123 668v131h856v-131h-856z" />
<glyph unicode="&#x2014;" horiz-adv-x="1364" d="M0 549v94h1364v-94h-1364z" />
<glyph unicode="&#x2018;" horiz-adv-x="354" d="M31 1034v191l96 252h78l-70 -265h74v-178h-178z" />
<glyph unicode="&#x2019;" horiz-adv-x="354" d="M109 1298v183h178v-185l-101 -262h-73l67 264h-71z" />
<glyph unicode="&#x201a;" horiz-adv-x="352" d="M92 0v182h180v-184l-98 -258h-78l72 260h-76z" />
<glyph unicode="&#x201c;" horiz-adv-x="616" d="M76 1036v181l96 262h80l-72 -262h78v-181h-182zM365 1034v185l98 258h80l-74 -263h76v-180h-180z" />
<glyph unicode="&#x201d;" horiz-adv-x="614" d="M90 1294v183h180v-185q0 4 -94 -260h-82l72 262h-76zM377 1294v183h182v-187l-94 -258h-84l72 262h-76z" />
<glyph unicode="&#x201e;" horiz-adv-x="614" d="M74 -264l78 264h-76v180h180l2 -180l-104 -264h-80zM362 0v182h181v-184l-101 -262h-77l73 264h-76z" />
<glyph unicode="&#x2022;" horiz-adv-x="682" d="M74 723q0 110 81 188t191 78q109 0 185.5 -78.5t76.5 -187.5q0 -113 -75 -189.5t-187 -76.5q-111 0 -191.5 78t-80.5 188z" />
<glyph unicode="&#x2026;" horiz-adv-x="2048" d="M236 0v217h213v-217h-213zM918 0v217h212v-217h-212zM1599 0v217h213v-217h-213z" />
<glyph unicode="&#x202f;" horiz-adv-x="377" />
<glyph unicode="&#x2039;" horiz-adv-x="682" d="M180 473v189l322 251v-180l-215 -166l215 -166v-180z" />
<glyph unicode="&#x203a;" horiz-adv-x="682" d="M180 221v180l215 166l-215 166v180l322 -251v-189z" />
<glyph unicode="&#x205f;" horiz-adv-x="472" />
<glyph unicode="&#x2122;" horiz-adv-x="1819" d="M35 1133l6 190h623l6 -190l-35 -3v17q0 87 -75 116q-40 15 -148 17v-614q0 -54 98 -54v-37h-315v37q100 0 100 54l-2 614q-114 -2 -155 -20q-72 -32 -66 -130zM727 1288v35h225l258 -565l248 565h221v-35h-18q-78 0 -78 -49v-573q0 -54 98 -54v-37h-315v37q100 0 100 54 v544l-262 -635h-37l-282 605v-514q0 -54 100 -54v-37h-254v37q100 0 100 54v553q0 50 -29 63q-16 6 -75 6z" />
<glyph unicode="&#xe000;" horiz-adv-x="1165" d="M0 1165h1165v-1165h-1165v1165z" />
<glyph unicode="&#xfb01;" horiz-adv-x="1011" d="M634 1102v61h252v-966q0 -75 11 -96q18 -33 84 -40v-61h-344v61q8 0 12 -2q84 0 84 109l-2 801q0 135 -72 137q-7 0 -25 -4zM729 1421v160h161v-160h-161zM63 0v63q72 11 89 53q8 21 8 105q0 28 1 83t1 83v184q0 81 -1 243t-1 243h-94v106h92q2 199 41 279 q60 123 235 123q27 0 79 -9.5t79 -9.5q41 0 49 29h59v-283h-63q-10 168 -166 168q-99 0 -136 -60q-28 -46 -28 -151v-86h258v-106l-254 2q0 -283 2 -565l2 -281q1 -84 24 -115q25 -35 93 -35h14v-63h-383z" />
<glyph unicode="&#xfb02;" horiz-adv-x="1011" d="M639 0v63h8q88 0 88 156q0 16 -2 46.5t-2 45.5q-2 254 -2 519t2 542q0 53 -19.5 76.5t-72.5 32.5v63l245 -2l2 -1352q0 -124 86 -124h7v-66h-340zM63 0v63q72 11 89 53q8 21 8 105q0 28 1 83t1 83v184q0 81 -1 243t-1 243h-94v106h92q2 199 41 279q60 123 235 123 q27 0 79 -9.5t79 -9.5q41 0 49 29h59v-283h-63q-10 168 -166 168q-99 0 -136 -60q-28 -46 -28 -151v-86h258v-106l-254 2q0 -283 2 -565l2 -281q1 -84 24 -115q25 -35 93 -35h14v-63h-383z" />
<glyph unicode="&#xfb03;" horiz-adv-x="1582" d="M1205 1102v61h252v-966q0 -75 11 -96q18 -33 84 -40v-61h-344v61q8 0 12 -2q84 0 84 109l-2 801q0 135 -72 137q-7 0 -25 -4zM1300 1421v160h161v-160h-161zM634 0v63q72 11 89 53q8 21 8 105q0 28 1 83t1 83v184q0 81 -1 243t-1 243h-94v106h92q2 199 41 279 q60 123 235 123q27 0 79 -9.5t79 -9.5q41 0 49 29h59v-283h-63q-10 168 -166 168q-99 0 -136 -60q-28 -46 -28 -151v-86h258v-106l-254 2q0 -283 2 -565l2 -281q1 -84 24 -115q25 -35 93 -35h14v-63h-383zM63 0v63q72 11 89 53q8 21 8 105q0 28 1 83t1 83v184q0 81 -1 243 t-1 243h-94v106h92q2 199 41 279q60 123 235 123q27 0 79 -9.5t79 -9.5q41 0 49 29h59v-283h-63q-10 168 -166 168q-99 0 -136 -60q-28 -46 -28 -151v-86h258v-106l-254 2q0 -283 2 -565l2 -281q1 -84 24 -115q25 -35 93 -35h14v-63h-383z" />
<glyph unicode="&#xfb04;" horiz-adv-x="1582" d="M1210 0v63h8q88 0 88 156q0 16 -2 46.5t-2 45.5q-2 254 -2 519t2 542q0 53 -19.5 76.5t-72.5 32.5v63l245 -2l2 -1352q0 -124 86 -124h7v-66h-340zM634 0v63q72 11 89 53q8 21 8 105q0 28 1 83t1 83v184q0 81 -1 243t-1 243h-94v106h92q2 199 41 279q60 123 235 123 q27 0 79 -9.5t79 -9.5q41 0 49 29h59v-283h-63q-10 168 -166 168q-99 0 -136 -60q-28 -46 -28 -151v-86h258v-106l-254 2q0 -283 2 -565l2 -281q1 -84 24 -115q25 -35 93 -35h14v-63h-383zM63 0v63q72 11 89 53q8 21 8 105q0 28 1 83t1 83v184q0 81 -1 243t-1 243h-94v106 h92q2 199 41 279q60 123 235 123q27 0 79 -9.5t79 -9.5q41 0 49 29h59v-283h-63q-10 168 -166 168q-99 0 -136 -60q-28 -46 -28 -151v-86h258v-106l-254 2q0 -283 2 -565l2 -281q1 -84 24 -115q25 -35 93 -35h14v-63h-383z" />
<glyph horiz-adv-x="0" d="M-88 1614q16 25 63.5 64t63.5 65h-2q14 4 52 46q40 46 54 54h187l-310 -229h-108z" />
</font>
</defs>
</svg>
